<svg height="512pt" viewBox="-31 0 512 512" width="512pt" xmlns="http://www.w3.org/2000/svg"><path d="m362.441406 474.5c0 16.570312-13.433594 30-30 30h-295c-16.570312 0-30-13.429688-30-30v-381c0-16.570312 13.429688-30 30-30h295c16.566406 0 30 13.429688 30 30zm0 0" fill="#aa8452"/><path d="m362.441406 93.5v381c0 16.570312-13.429687 30-30 30h-30c16.570313 0 30-13.429688 30-30v-381c0-16.570312-13.429687-30-30-30h30c16.570313 0 30 13.429688 30 30zm0 0" fill="#7f5c3e"/><path d="m332.628906 98c0-2.761719-2.238281-5-5-5h-286c-2.761718 0-5 2.238281-5 5v372c0 2.761719 2.238282 5 5 5h286c2.761719 0 5-2.238281 5-5zm0 0" fill="#fff"/><path d="m227.3125 58v-36c0-8.285156-6.714844-15-15-15h-55c-8.285156 0-15 6.714844-15 15v36zm0 0" fill="#ccc"/><path d="m227.3125 22v36h-30v-36c0-8.28125-6.710938-15-15-15h30c8.289062 0 15 6.71875 15 15zm0 0" fill="#a0a0a0"/><path d="m109.3125 48c-5.523438 0-10 4.476562-10 10v49c0 5.523438 4.476562 10 10 10h151c5.523438 0 10-4.476562 10-10v-49c0-5.523438-4.476562-10-10-10zm0 0" fill="#e8e8e8"/><path d="m436.757812 143.621094-14.714843-8.496094c-4.78125-2.761719-10.894531-1.121094-13.652344 3.65625l-12.496094 21.640625 10.402344 18.488281h21.625l12.492187-21.636718c2.761719-4.78125 1.121094-10.894532-3.65625-13.652344zm0 0" fill="#db8733"/><path d="m390.703125 157.421875 42.410156 24.488281c4.78125 2.761719 6.417969 8.871094 3.660157 13.652344l-9.996094 17.3125-41.148438-4.542969-18.574218-29.941406 9.992187-17.308594c2.761719-4.78125 8.875-6.417969 13.65625-3.660156zm0 0" fill="#edaf54"/><path d="m327.332031 385.125h-37.167969l-22.558593-34.484375 99.449219-172.246094 59.722656 34.480469zm0 0" fill="#ffd47d"/><path d="m306.601562 413.753906-43.117187 19.992188c-3.175781 1.472656-6.839844-.6875-7.089844-4.175782l-3.34375-46.851562c-.285156-3.980469.632813-7.957031 2.628907-11.417969l11.925781-20.660156 59.722656 34.480469-11.828125 20.488281c-2.058594 3.570313-5.164062 6.410156-8.898438 8.144531zm0 0" fill="#edaf54"/><path d="m270.3125 58v49c0 5.519531-4.480469 10-10 10h-30c5.519531 0 10-4.480469 10-10v-49c0-5.519531-4.480469-10-10-10h30c5.519531 0 10 4.480469 10 10zm0 0" fill="#ccc"/><path d="m436.777344 195.558594-9.996094 17.3125-25.980469-15 9.996094-17.3125c2.757813-4.777344 1.121094-10.886719-3.660156-13.644532l25.980469 15c4.78125 2.761719 6.417968 8.867188 3.660156 13.644532zm0 0" fill="#db8733"/><path d="m301.34375 370.132812 99.449219-172.25 25.980469 15-99.449219 172.25zm0 0" fill="#e89e46"/><path d="m327.332031 385.125-11.832031 20.488281c-2.054688 3.558594-5.164062 6.40625-8.902344 8.140625l-43.109375 19.992188c-3.171875 1.472656-6.847656-.683594-7.09375-4.175782l-1.351562-18.957031 25.574219-11.859375c3.738281-1.734375 6.847656-4.582031 8.902343-8.140625l11.832031-20.492187zm0 0" fill="#db8733"/><path d="m448.65625 147.746094c-1.207031-4.511719-4.101562-8.285156-8.148438-10.621094l-14.714843-8.496094c-4.046875-2.335937-8.761719-2.957031-13.277344-1.746094-4.511719 1.207032-8.285156 4.101563-10.621094 8.148438l-8.78125 15.207031c-3.726562-1.75-7.910156-2.136719-11.9375-1.058593-4.511719 1.210937-8.285156 4.105468-10.621093 8.152343l-.554688.957031v-64.789062c0-20.679688-16.820312-37.5-37.5-37.5h-54.699219c-1.222656-8.464844-8.503906-15-17.300781-15h-25.5v-18.5c0-12.40625-10.09375-22.5-22.5-22.5h-55c-12.40625 0-22.5 10.09375-22.5 22.5v18.5h-25.5c-8.796875 0-16.082031 6.535156-17.300781 15h-54.699219c-20.679688 0-37.5 16.820312-37.5 37.5v381c0 20.679688 16.820312 37.5 37.5 37.5h234.046875c4.140625 0 7.5-3.355469 7.5-7.5s-3.359375-7.5-7.5-7.5h-234.046875c-12.40625 0-22.5-10.09375-22.5-22.5v-381c0-12.40625 10.09375-22.5 22.5-22.5h54.5v36.5c0 9.648438 7.851562 17.5 17.5 17.5h151c9.648438 0 17.5-7.851562 17.5-17.5v-7h47.5v134.867188l-76.316406 132.183593c-2.757813 4.773438-4.007813 10.203125-3.613282 15.703125l3.34375 46.851563c.292969 4.097656 2.582032 7.789062 6.121094 9.875 1.953125 1.148437 4.144532 1.730469 6.347656 1.730469 1.789063 0 3.582032-.386719 5.253907-1.160157l43.117187-19.996093c5.164063-2.394532 9.398438-6.265626 12.242188-11.191407l3.503906-6.066406v64.203125h-281v-367h20c4.140625 0 7.5-3.355469 7.5-7.5s-3.359375-7.5-7.5-7.5h-22.5c-6.894531 0-12.5 5.605469-12.5 12.5v372c0 6.894531 5.605469 12.5 12.5 12.5h286c6.890625 0 12.5-5.605469 12.5-12.5v-92.6875l14.5-25.113281v122.300781c0 12.40625-10.09375 22.5-22.5 22.5h-25.957031c-4.140625 0-7.5 3.355469-7.5 7.5 0 4.140625 3.359375 7.5 7.5 7.5h25.957031c20.675781 0 37.5-16.824219 37.5-37.5v-148.28125l63.273438-109.59375 9.996093-17.3125c2.335938-4.046875 2.957031-8.761719 1.746094-13.273438-1.078125-4.027343-3.503906-7.453124-6.886719-9.808593l8.78125-15.207031c2.335938-4.046876 2.957032-8.761719 1.746094-13.277344zm-33.773438-5.214844c.6875-1.191406 2.214844-1.601562 3.410157-.914062l14.714843 8.496093c.777344.449219 1.0625 1.144531 1.164063 1.515625.097656.375.199219 1.113282-.25 1.894532l-8.746094 15.144531-19.035156-10.988281zm-31.339843 22.300781c.449219-.777343 1.144531-1.0625 1.515625-1.160156.375-.105469 1.113281-.203125 1.890625.246094l42.414062 24.488281c.78125.449219 1.066407 1.140625 1.164063 1.515625.101562.371094.199218 1.113281-.25 1.890625l-6.246094 10.816406-46.730469-26.980468zm-233.542969-142.332031c0-4.136719 3.363281-7.5 7.5-7.5h55c4.136719 0 7.5 3.363281 7.5 7.5v18.5h-70zm113 85c0 1.378906-1.121094 2.5-2.5 2.5h-151c-1.378906 0-2.5-1.121094-2.5-2.5v-49c0-1.378906 1.121094-2.5 2.5-2.5h151c1.378906 0 2.5 1.121094 2.5 2.5zm65-22h-50v-14.5h54.5c12.40625 0 22.5 10.09375 22.5 22.5v90.773438l-14.5 25.113281v-111.386719c0-6.894531-5.605469-12.5-12.5-12.5zm41.800781 103.140625 46.730469 26.980469-91.945312 159.257812-46.734376-26.980468zm-60.792969 213.222656c-1.292968 2.238281-3.21875 3.996094-5.5625 5.082031v.003907l-39.828124 18.46875-3.085938-43.230469c-.179688-2.5.390625-4.964844 1.644531-7.132812l8.175781-14.167969 46.734376 26.980469zm0 0"/><path d="m77.46875 418.4375c1.425781 1.269531 3.207031 1.890625 4.976562 1.890625 2.070313 0 4.128907-.851563 5.609376-2.519531l14.871093-16.742188 11.511719 13.730469c2.308594 2.757813 5.695312 4.382813 9.289062 4.46875 3.597657.0625 7.050782-1.382813 9.484376-4.027344l13.84375-15.03125 15.34375 17.367188c2.746093 3.105469 7.484374 3.398437 10.585937.65625 3.105469-2.742188 3.398437-7.480469.65625-10.585938l-17.179687-19.445312c-2.339844-2.648438-5.707032-4.1875-9.238282-4.222657-.042968-.003906-.085937-.003906-.128906-.003906-3.488281 0-6.832031 1.464844-9.195312 4.03125l-13.792969 14.976563-11.546875-13.769531c-2.335938-2.785157-5.761719-4.414063-9.402344-4.46875-3.640625-.082032-7.105469 1.480468-9.519531 4.199218l-16.792969 18.90625c-2.753906 3.097656-2.472656 7.839844.625 10.589844zm0 0"/><path d="m298.75 165.5c0-4.144531-3.359375-7.5-7.5-7.5h-213c-4.140625 0-7.5 3.355469-7.5 7.5s3.359375 7.5 7.5 7.5h213c4.140625 0 7.5-3.355469 7.5-7.5zm0 0"/><path d="m79.25 213h89c4.140625 0 7.5-3.355469 7.5-7.5s-3.359375-7.5-7.5-7.5h-89c-4.140625 0-7.5 3.355469-7.5 7.5s3.359375 7.5 7.5 7.5zm0 0"/><path d="m245.75 205.5c0-4.144531-3.359375-7.5-7.5-7.5h-35c-4.140625 0-7.5 3.355469-7.5 7.5s3.359375 7.5 7.5 7.5h35c4.140625 0 7.5-3.355469 7.5-7.5zm0 0"/><path d="m79.25 253h72c4.140625 0 7.5-3.355469 7.5-7.5s-3.359375-7.5-7.5-7.5h-72c-4.140625 0-7.5 3.355469-7.5 7.5s3.359375 7.5 7.5 7.5zm0 0"/><path d="m217.25 238h-34c-4.140625 0-7.5 3.355469-7.5 7.5s3.359375 7.5 7.5 7.5h34c4.140625 0 7.5-3.355469 7.5-7.5s-3.359375-7.5-7.5-7.5zm0 0"/><path d="m79.25 293h52c4.140625 0 7.5-3.355469 7.5-7.5s-3.359375-7.5-7.5-7.5h-52c-4.140625 0-7.5 3.355469-7.5 7.5s3.359375 7.5 7.5 7.5zm0 0"/><path d="m224.75 285.5c0-4.144531-3.359375-7.5-7.5-7.5h-54c-4.140625 0-7.5 3.355469-7.5 7.5s3.359375 7.5 7.5 7.5h54c4.140625 0 7.5-3.355469 7.5-7.5zm0 0"/><path d="m79.25 333h52c4.140625 0 7.5-3.355469 7.5-7.5s-3.359375-7.5-7.5-7.5h-52c-4.140625 0-7.5 3.355469-7.5 7.5s3.359375 7.5 7.5 7.5zm0 0"/></svg>